<svg fill="#ffffff" version="1.1" id="Capa_1" xmlns="http://www.w3.org/2000/svg" xmlns:xlink="http://www.w3.org/1999/xlink" viewBox="0 0 45.201 45.202" xml:space="preserve" stroke="#ffffff"><g id="SVGRepo_bgCarrier" stroke-width="0"></g><g id="SVGRepo_tracerCarrier" stroke-linecap="round" stroke-linejoin="round"></g><g id="SVGRepo_iconCarrier"> <g> <path d="M35.792,10.271c0.785-1.216,1.314-2.559,1.523-3.929c0.321-2.104-0.154-3.972-1.308-5.124 c-0.972-0.971-4.697-3.511-12.263,3.857c-0.211-0.025-0.426-0.041-0.645-0.041c-0.426,0-0.84,0.054-1.239,0.146 C14.226-2.315,10.469,0.244,9.493,1.219c-1.152,1.152-1.629,3.02-1.308,5.124c0.207,1.36,0.729,2.693,1.505,3.901 c-2.562,0.213-4.589,2.342-4.589,4.958v25c0,2.757,2.243,5,5,5h25c2.757,0,5-2.243,5-5v-25 C40.101,12.682,38.22,10.612,35.792,10.271z M38.101,15.202v12h-14v-15h11C36.758,12.202,38.101,13.544,38.101,15.202z M34.594,2.634c0.688,0.687,0.966,1.96,0.745,3.407c-0.229,1.49-0.951,2.938-2.018,4.161h-4.738 c-0.112-1.874-1.164-3.495-2.694-4.399C30.438,1.643,33.398,1.438,34.594,2.634z M26.566,10.202h-6.933 c0.171-1.772,1.651-3.167,3.466-3.167C24.915,7.035,26.396,8.43,26.566,10.202z M10.907,2.633c1.221-1.218,4.282-0.982,8.994,3.437 c-1.305,0.938-2.181,2.431-2.283,4.132h-5.439c-1.066-1.223-1.79-2.671-2.017-4.161C9.94,4.594,10.22,3.32,10.907,2.633z M7.101,15.202c0-1.657,1.343-3,3-3h12v15h-15V15.202z M7.101,40.202v-11h15v14h-12C8.443,43.202,7.101,41.859,7.101,40.202z M38.101,40.202c0,1.657-1.343,3-3,3h-11v-14h14V40.202z"></path> </g> </g></svg>